<?xml version="1.0" encoding="utf-8"?>
<!-- Generator: Adobe Illustrator 16.0.0, SVG Export Plug-In . SVG Version: 6.00 Build 0)  -->
<!DOCTYPE svg PUBLIC "-//W3C//DTD SVG 1.1//EN" "http://www.w3.org/Graphics/SVG/1.1/DTD/svg11.dtd">
<svg version="1.1" xmlns="http://www.w3.org/2000/svg" xmlns:xlink="http://www.w3.org/1999/xlink" x="0px" y="0px"
	 width="2097.223px" height="811.116px" viewBox="0 0 2097.223 811.116" enable-background="new 0 0 2097.223 811.116"
	 xml:space="preserve">
<g id="logoBGBlue" display="none">
	<polygon display="inline" fill="#009EE1" stroke="#009EE1" stroke-width="2" stroke-miterlimit="10" points="2098.594,813 
		1.594,813 0.223,0 2097.223,0 	"/>
</g>
<g id="logoOuter">
	<!-- [DISABLED DROP SHADOW]
				<image overflow="visible" opacity="0.75" width="4532" height="1512" xlink:href="FAACE750.png"  transform="matrix(0.48 0 0 0.48 -25.7446 -15.3154)">
	</image> -->
	<g>
		<g>
			<polygon fill="#FFFFFF" points="125.98,134.896 140.654,129.937 149.748,132.83 			"/>
			<path fill="#FFFFFF" d="M183.021,121.876l4.96-4.753c0,0,169.674-46.5,363.737-62.621l6.822,15.293
				C558.54,69.796,375.636,82.195,183.021,121.876z"/>
			<path fill="#FFFFFF" d="M1196.939,36.729c-393.29-9.094-613.187,15.086-613.187,15.086l-17.567,23.147l2.065,1.034l5.993-7.027
				c0,0,141.582-16.534,627.248-12.193c31.414,6.82,59.532,20.047,59.532,20.047l9.507-10.127l-5.166-0.827L1196.939,36.729z"/>
			<path fill="#FFFFFF" d="M2019.74,149.982c-23.354-8.68-97.261-24.27-215.071-45.351l-40.515-7.885
				c0,0-221.199-36.208-466.424-44.096c-1.793,4.66-22.229,25.452-22.229,25.452l-4.345,0.994l34.515-42.781
				c0,0,389.585,12.399,715.089,113.874"/>
			<path fill="#FFFFFF" d="M22.255,195.241c0,0,91.762-39.061,120.696-42.161c17.565,7.028,11.572,6.201,21.699,7.235
				c9.92-2.066,14.88-12.4,23.561-17.567c9.918-3.926,95.481-17.98,106.228-19.84l12.812,35.547l-1.033-23.354
				c0,0-0.206-1.24,8.267-1.24c8.267,1.24,7.44,0.827,10.954,2.894c1.24,4.133,2.48,7.027,2.48,7.027l3.307-11.78l0.414-15.5
				l90.729-11.16l6.2,21.081l5.787-22.94l9.92,56.834l3.307-57.868l104.162-10.541l10.127,19.634l22.321-21.907l159.549-7.645
				c0,0,9.094,15.087,9.3,14.467s5.167-13.434,4.96-13.434s13.021,32.861,13.021,32.861l-1.033-33.481l-7.234-1.24
				c0,0,45.053-5.167,404.449-3.927c2.279,17.98,4.14,94.655,4.14,94.655l6.2-94.242l3.1-0.413c0,0,3.927,60.968,3.307,60.968
				s5.374-59.935,5.374-59.935l4.96,14.88l6.406-14.467c0,0,57.041,20.253,65.721,22.734s20.46-3.926,22.733-6.2
				s15.914-19.634,15.914-19.634s129.38,1.446,244.289,14.466c10.131,1.239,24.598,2.686,24.598,2.686l-3.72,73.782l13.64-61.381
				l2.894,14.054l4.96-10.54l8.887-13.021c0,0,212.882,27.487,275.71,44.021c2.287,17.532,1.938,68.981,1.869,76.888
				c-0.005,0.668-0.009,1.025-0.009,1.025l10.334-56.834l5.166,21.287l9.094-23.767l2.894,8.06l4.547-20.254
				c0,0,158.936,37.821,167.203,43.194c0.414,10.747-3.72,23.767-3.72,23.767l-17.153,34.306l4.96,11.78l-31.62,144.667
				l-19.84,10.127l3.513,24.801l-30.177,138.054l-38.854-5.167l1.653-26.04l-9.3,23.354l-3.307,1.24l0.62-54.355l-12.607,51.667
				c0,0-138.061-18.188-146.947-21.081c0-7.234-0.413-22.114-0.413-22.114l-39.681,6.2c0,0-425.747-41.746-469.15-40.092
				c-3.1-1.446-3.72-2.479-3.72-2.479l-8.681-23.768l-1.446,26.248l-18.394-1.447l-10.127-41.954l2.066,30.38l-5.58,11.367
				c0,0-293.683-8.268-396.809,1.446c-21.084-8.267-50.844-20.46-50.844-20.46l-36.787,15.086l-50.014,4.547l-8.996-20.505
				l-4.336,22.037l-5.729-7.498l-7.6-38.882c0,0-4.546,32.447-3.927,32.241s3.72,15.5,3.72,15.5s-148.181,12.399-294.091,44.433
				c-0.207-1.446,0-6.2,0-6.2l-2.273-17.567l-7.646,25.007l-4.96,1.447l-21.287-32.861l-1.447,15.707l5.581,20.461l-13.021,3.1
				l-4.753-6.407l-13.021-13.64l-20.46-44.848l17.567,68.615l-97.755,27.278l-62.208-1.033L90.876,429.187l10.541-38.027
				l-18.394,0.62L22.255,195.241z"/>
			<path fill="#FFFFFF" d="M132.417,597.625c0,0,18.6,11.573,18.394,12.193s48.154,26.041,48.774,26.041s29.968-8.474,29.968-8.474
				l-38.441-30.588L132.417,597.625z"/>
			<polygon fill="#FFFFFF" points="200.617,597.625 213.431,593.904 250.632,621.804 232.238,625.731 			"/>
			<path fill="#FFFFFF" d="M253.729,620.977c265.777-65.721,480.511-79.565,480.511-79.565l37.821-19.221l50.221,23.974
				l38.234-1.446l-43.399-34.513l-44.848-17.774c0,0-15.707,7.647-33.48,13.847c-111.396,5.994-245.939,29.14-245.939,29.14
				l32.861,31.001l-41.748-29.968c-77.915,9.506-260.199,55.18-260.199,55.18L253.729,620.977z"/>
			<path fill="#FFFFFF" d="M833.261,507.779l36.088,33.4c0,0,228.513-2.935,318.417,0.164c0,0,145.073,4.096,267.262,20.544
				c0.258,0.034,0.506,0.058,0.764,0.093c0,0,256.016,29.343,262.216,31.202c9.301-9.299,39.216-36.378,39.216-36.378V547
				l-17.472,2.157c0,0-237.261-22.114-282.729-27.074c-46.504-4.133-252.969-23.56-520.189-16.119L833.261,507.779z"/>
			<polygon fill="#FFFFFF" points="1718.389,595.971 1758.896,565.59 1934.362,592.044 1894.475,630.072 1777.292,608.578 
				1773.778,589.771 1733.891,597.625 			"/>
			<polygon fill="#FFFFFF" points="1944.282,594.938 1943.249,592.25 1957.923,594.938 1917.209,633.999 1896.748,631.105 			"/>
			<path fill="#FFFFFF" d="M1969.29,596.384c1.033,0.62,15.913,2.273,15.913,2.273l-38.647,41.334c0,0-26.454-5.374-25.834-5.58
				S1969.29,596.384,1969.29,596.384z"/>
		</g>
	</g>
</g>
<g id="logoMainText">
	<polygon fill="#009EE1" points="159.222,243.996 147.222,265.996 191.889,460.662 219.889,502.662 255.024,486.824 
		238.556,399.996 246.829,386.343 310.966,335.39 291.725,250.23 	"/>
	<path fill="#009EE1" d="M343.889,412.663c2,0,20,54.667,22,54.667s30.667-2,30.667-2l9.333-20.667l2.667-52l33.535,47.484
		l32.465,13.849l27.752-17.769l-51.798-86.14l20.045-51.425l-6.729-70.167l-64.604-35.167l-85.333,28L343.889,412.663z"/>
	<polygon fill="#009EE1" points="483.889,187.996 499.889,167.329 537.889,169.996 548.985,183.6 577.889,423.329 554.555,442.663 
		522.555,433.329 	"/>
	<polygon fill="#009EE1" points="590.556,174.665 667.222,165.997 691.889,259.996 703.222,261.33 716.555,173.996 732.488,152.958 
		793.889,159.996 829.222,401.329 791.222,415.329 771.889,353.329 759.889,285.329 750.555,284.662 735.222,405.996 
		707.889,420.662 667.889,325.996 659.889,287.996 647.223,289.329 647.223,356 633.889,431.996 598.555,423.329 	"/>
	<path fill="#009EE1" d="M921.221,130.662l47.333,17.333l60,246.667l-9.333,12l-40.667-4.667l-40-41.333l-32.667,17.333l-17.333,34
		c0,0-40-11.333-38-12s32.667-182,32.667-182L921.221,130.662z"/>
	<polygon fill="#009EE1" points="1044.721,164.498 1066.001,137.637 1100.223,150.662 1100.223,339 1162.56,392.043 
		1149.221,411.328 1051.888,403.328 1045.69,389.908 	"/>
	<path fill="#009EE1" d="M1329.889,159.334l75.334,8l5.333,96l12,4l30-83.333l18.667-18.667l59.205,18.886l-9.872,244.448
		l-41.333,7.333l-6-51.333l1.288-83.889l-10.622-4.111c0,0-37.334,115.333-38,117.333s-28,12-28,12l-21.333-110.667l-0.667-30.667
		l-10.666-2.667l-14.667,66l-26.074,72.879l-33.864-13.388L1329.889,159.334z"/>
	<polygon fill="#009EE1" points="1661.223,181.334 1706.444,205.878 1717.223,458.667 1702.556,469.334 1668.643,459.078 
		1634.777,407.886 1602.556,417.334 1578.556,449.334 1541.223,432.001 1606.556,260.001 	"/>
	<path fill="#009EE1" d="M1781.89,224.002c0,0,42.666-2,44.666-2.667s24,68,26,68s15.334,64.667,15.334,64.667l12.666-2.667
		l32.667-104l40.667,18L1898.211,502h-41.741l-19.914-78.665l-22.218-63.489l-7.115,6.155l-23.993,108.827l-38.196,3.544
		l-5.144-58.372L1781.89,224.002z"/>
</g>
<g id="logoDetails">
	<polygon fill="#FFFFFF" points="214.394,290.706 249.05,282.805 256.413,318.718 237.558,338.292 	"/>
	<polygon fill="#FFFFFF" points="385.701,243.839 405.453,248.148 419.28,282.985 405.813,304.892 386.778,300.583 	"/>
	<path fill="#FFFFFF" d="M935.355,254.973c0.359,0.539,11.313,28.372,11.313,28.372l-8.799,31.245l-17.059-12.929L935.355,254.973z"
		/>
	<path fill="#FFFFFF" d="M1794.31,246.368l-4.938,28.939c0,0,1.371,9.738,1.92,9.875s9.326,1.097,9.326,1.097l-5.623-11.521
		L1794.31,246.368z"/>
	<polygon fill="#FFFFFF" points="1652.511,304.288 1658.262,334.703 1644.128,362.624 1629.925,347.728 	"/>
	<path fill="#FFFFFF" d="M1338.916,179.163c0.407,0,5.837-2.036,8.959,2.579c0.679,5.022-0.814,2.171,0.407,6.515
		c0,0,2.172,9.501,0.679,13.574s-5.022,13.981-6.787,15.067s1.629-9.094,1.493-12.216S1338.916,179.163,1338.916,179.163z"/>
</g>
<g id="logoSubText">
  <!-- [DISABLED DROP SHADOW] 
		<image overflow="visible" opacity="0.75" width="2254" height="546" xlink:href="FAACE751.png"  transform="matrix(0.48 0 0 0.48 481.4585 570.2642)">
	</image> -->
	<g>
		<g>
			<polygon fill="#FFFFFF" points="540.471,620.264 529.458,629.047 545.523,713.79 558.777,758.37 580.464,754.755 
				592.513,692.905 599.742,684.873 614.201,751.542 622.233,758.37 640.708,750.337 666.01,636.678 659.986,622.219 
				640.756,626.82 633.077,676.84 626.25,691.701 611.389,629.85 604.963,621.818 588.095,626.236 575.243,689.692 568.416,693.708 
				557.513,630.314 			"/>
			<path fill="#FFFFFF" d="M681.673,622.219c0,0-5.623,9.237-6.024,10.442s1.205,120.487,1.205,120.487l50.203,5.622l6.426-17.27
				l-22.892-10.844l-6.024-23.695l20.081-6.828l6.828-17.27l-22.893-11.245l-3.213-18.475l25.704-10.041l2.41-14.057l-3.804-5.942
				L681.673,622.219z"/>
			<polygon fill="#FFFFFF" points="753.162,621.417 744.327,630.654 745.933,752.747 756.777,759.575 771.637,752.345 
				772.842,633.465 769.227,626.637 			"/>
			<path fill="#FFFFFF" d="M806.274,627.266l43.79-1.54l18.159,20.591V654l-19.073,8.382l-24.9-15.262l-15.262,55.825
				c0,0,13.655,29.318,14.86,29.318s16.065-3.213,16.065-3.213l6.426-18.475l-21.286-10.844c0,0-3.213-14.458,6.024-17.27
				s45.383,6.426,45.383,6.426l-37.351,71.087c0,0-38.958-12.851-39.761-11.646s-16.065-30.926-16.065-30.926L806.274,627.266z"/>
			<polygon fill="#FFFFFF" points="894.934,621.819 884.894,631.859 884.09,751.945 902.966,758.772 911.802,749.936 
				912.204,720.216 917.023,700.938 937.104,702.544 943.129,751.141 962.407,759.977 969.234,748.33 968.833,630.252 
				948.601,622.012 937.104,668.005 914.212,667.604 911.4,629.45 			"/>
			<path fill="#FFFFFF" d="M979.675,628.646c-1.077,0.673-1.205,15.663-1.205,15.663s13.655,6.828,17.27,15.262
				s1.205,89.16,1.205,89.16l6.828,11.245l19.68-6.827l1.205-94.382l12.45-8.434l7.631-14.459l-7.216-9.056
				C1037.522,626.819,988.913,623.424,979.675,628.646z"/>
			<polygon fill="#FFFFFF" points="1064.819,676.839 1058.394,690.093 1063.213,703.346 1149.964,704.953 1155.987,702.142 
				1160.808,684.872 1152.373,676.438 			"/>
			<polygon fill="#FFFFFF" points="1204.582,625.433 1193.738,641.096 1194.542,750.337 1198.156,756.763 1245.548,760.378 
				1249.966,749.936 1222.655,725.036 1219.958,632.282 			"/>
			<path fill="#FFFFFF" d="M1328.684,635.072l18.876,72.693l-33.334,50.203l-36.949-3.213l-19.68-93.979l37.752-37.753
				L1328.684,635.072z M1281.292,676.84l14.042,55.507l18.088-6.107l-4.819-70.686l-9.237-4.417L1281.292,676.84z"/>
			<polygon fill="#FFFFFF" points="1371.659,631.056 1356.397,665.194 1390.535,716.601 1388.628,730.598 1368.273,733.025 
				1358.405,736.682 1358.808,751.141 1373.667,761.985 1402.985,755.559 1419.051,716.601 1386.117,668.808 1389.732,651.539 
				1406.325,651.726 1412.006,635.121 			"/>
			<path fill="#FFFFFF" d="M1442.345,629.851l-15.262,34.941l33.736,53.415l-1.606,12.853c0,0-24.097,1.605-29.72,5.622
				c0,9.64-1.606,14.058-1.606,14.058l17.27,11.245l28.917-8.836l16.868-38.154L1456,668.808l5.221-16.868l16.111-0.433
				l6.991-16.387L1442.345,629.851z"/>
		</g>
	</g>
</g>
</svg>
